# xmcd CD database file
#
# Track frame offsets:
#	150
#	16130
#	25089
#	41001
#	71965
#	95767
#	104845
#	124994
#
# Disc length: 1993 seconds
#
# Revision: 0
# Processed by: cddbd v1.5.2PL0 Copyright (c) Steve Scherf et al.
# Submitted via: CDex 1.51
#
DISCID=7107c708
DTITLE=Ten Years After - Ssssh
DYEAR=2004
DGENRE=Blues
TTITLE0=Bad Scene
TTITLE1=Two Time Mama
TTITLE2=Stoned Woman
TTITLE3=Good Morning Little Schoolgirl
TTITLE4=If You Should Love Me
TTITLE5=I Don't Know That You Don't Know My Name
TTITLE6=Stomp
TTITLE7=I Woke Up This Morning
EXTD=YEAR: 2004
EXTT0=
EXTT1=
EXTT2=
EXTT3=
EXTT4=
EXTT5=
EXTT6=
EXTT7=
PLAYORDER=
